<?xml version="1.0" encoding="UTF-8" standalone="no"?>
<!DOCTYPE svg PUBLIC "-//W3C//DTD SVG 1.1//EN"
 "http://www.w3.org/Graphics/SVG/1.1/DTD/svg11.dtd">
<!-- Generated by graphviz version 2.38.0 (20140413.2041)
 -->
<!-- Title: G Pages: 1 -->
<svg width="138pt" height="258pt"
 viewBox="0.00 0.00 138.00 258.00" xmlns="http://www.w3.org/2000/svg" xmlns:xlink="http://www.w3.org/1999/xlink">
<g id="graph0" class="graph" transform="scale(1 1) rotate(0) translate(4 254)">
<title>G</title>
<polygon fill="white" stroke="none" points="-4,4 -4,-254 134,-254 134,4 -4,4"/>
<g id="clust1" class="cluster"><title>cluster_Global</title>
<path fill="none" stroke="gray" d="M20,-8C20,-8 110,-8 110,-8 116,-8 122,-14 122,-20 122,-20 122,-230 122,-230 122,-236 116,-242 110,-242 110,-242 20,-242 20,-242 14,-242 8,-236 8,-230 8,-230 8,-20 8,-20 8,-14 14,-8 20,-8"/>
<text text-anchor="middle" x="65" y="-229.2" font-family="Times New Roman,serif" font-size="11.00" fill="gray">Global</text>
</g>
<!-- \\Player -->
<g id="node1" class="node"><title>\\Player</title>
<polygon fill="none" stroke="black" points="93.5,-214 36.5,-214 36.5,-178 93.5,-178 93.5,-214"/>
<text text-anchor="middle" x="65" y="-193.2" font-family="Courier,monospace" font-size="11.00">Player</text>
</g>
<!-- \\Notification -->
<g id="node2" class="node"><title>\\Notification</title>
<polygon fill="none" stroke="black" points="114,-160 16,-160 16,-124 114,-124 114,-160"/>
<text text-anchor="middle" x="65" y="-139.2" font-family="Courier,monospace" font-size="11.00">Notification</text>
</g>
<!-- \\Board -->
<g id="node3" class="node"><title>\\Board</title>
<polygon fill="none" stroke="black" points="92,-106 38,-106 38,-70 92,-70 92,-106"/>
<text text-anchor="middle" x="65" y="-85.2" font-family="Courier,monospace" font-size="11.00">Board</text>
</g>
<!-- \\TicTacToe -->
<g id="node4" class="node"><title>\\TicTacToe</title>
<polygon fill="none" stroke="black" points="103.5,-52 26.5,-52 26.5,-16 103.5,-16 103.5,-52"/>
<text text-anchor="middle" x="65" y="-31.2" font-family="Courier,monospace" font-size="11.00">TicTacToe</text>
</g>
</g>
</svg>
